{"title":"Skyscraper 2018 1080p BluRay AC3 5.1 x264 [MW]","magnet":"magnet:?xt=urn:btih:e7810762db83d6d9433d84bfb9d820af473db4ed&dn=Skyscraper+2018+1080p+BluRay+AC3+5.1+x264+%5BMW%5D&tr=udp%3A%2F%2Ftracker.leechers-paradise.org%3A6969&tr=udp%3A%2F%2Fzer0day.ch%3A1337&tr=udp%3A%2F%2Fopen.demonii.com%3A1337&tr=udp%3A%2F%2Ftracker.coppersurfer.tk%3A6969&tr=udp%3A%2F%2Fexodus.desync.com%3A6969","uploader":"MFreaky","categoryP":"video","categoryS":"hd___movies","size":"3014064676","seeders":"7","leechers":"6","description":" <a href=\"https://pichub.site/image/EXoLI\" rel=\"nofollow\" target=\"_NEW\">https://pichub.site/image/EXoLI</a> <a href=\"\nhttps://pichub.site/image/EXryg\" rel=\"nofollow\" target=\"_NEW\">\nhttps://pichub.site/image/EXryg</a> <a href=\"\nhttps://pichub.site/image/EX5d8\" rel=\"nofollow\" target=\"_NEW\">\nhttps://pichub.site/image/EX5d8</a> <a href=\"\nhttps://pichub.site/image/EXpFX\" rel=\"nofollow\" target=\"_NEW\">\nhttps://pichub.site/image/EXpFX</a> <a href=\"\nhttps://pichub.site/image/EXlGJ\" rel=\"nofollow\" target=\"_NEW\">\nhttps://pichub.site/image/EXlGJ</a>\r\n\r\nIMDB <a href=\"\nhttps://www.imdb.com/title/tt5758778/\" rel=\"nofollow\" target=\"_NEW\">\nhttps://www.imdb.com/title/tt5758778/</a>\r\n\r\nVideo\r\nFormat                                   : AVC\r\nFormat/Info                              : Advanced Video Codec\r\nFormat profile                           : High@L4.1\r\nFormat settings                          : CABAC / 4 Ref Frames\r\nFormat settings, CABAC                   : Yes\r\nFormat settings, RefFrames               : 4 frames\r\nCodec ID                                 : V_MPEG4/ISO/AVC\r\nDuration                                 : 1 h 42 min\r\nBit rate                                 : 3 500 kb/s\r\nWidth                                    : 1 920 pixels\r\nHeight                                   : 800 pixels\r\nDisplay aspect ratio                     : 2.40:1\r\nFrame rate mode                          : Constant\r\nFrame rate                               : 23.976 (24000/1001) FPS\r\nColor space                              : YUV\r\nChroma subsampling                       : 4:2:0\r\nBit depth                                : 8 bits\r\nBits/(Pixel*Frame)                       : 0.095\r\nStream size                              : 2.48 GiB (88%)\r\nWriting library                          : x264 core 155 r2901 7d0ff22\r\n\r\nAudio\r\nFormat                                   : AC-3\r\nFormat/Info                              : Audio Coding 3\r\nCodec ID                                 : A_AC3\r\nDuration                                 : 1 h 42 min\r\nBit rate mode                            : Constant\r\nBit rate                                 : 448 kb/s\r\nChannel(s)                               : 6 channels\r\nChannel positions                        : Front: L C R, Side: L R, LFE\r\nSampling rate                            : 48.0 kHz\r\nFrame rate                               : 31.250 FPS (1536 SPF)\r\nBit depth                                : 16 bits\r\nStream size                              : 328 MiB (11%)\r\nLanguage                                 : English","last_updated":"2018-09-28T12:41:58.103Z","parsed":{"xt":"urn:btih:e7810762db83d6d9433d84bfb9d820af473db4ed","dn":"Skyscraper 2018 1080p BluRay AC3 5.1 x264 [MW]","tr":["udp://exodus.desync.com:6969","udp://open.demonii.com:1337","udp://tracker.coppersurfer.tk:6969","udp://tracker.leechers-paradise.org:6969","udp://zer0day.ch:1337"],"infoHash":"e7810762db83d6d9433d84bfb9d820af473db4ed","infoHashBuffer":{"type":"Buffer","data":[231,129,7,98,219,131,214,217,67,61,132,191,185,216,32,175,71,61,180,237]},"name":"Skyscraper 2018 1080p BluRay AC3 5.1 x264 [MW]","announce":["udp://exodus.desync.com:6969","udp://open.demonii.com:1337","udp://tracker.coppersurfer.tk:6969","udp://tracker.leechers-paradise.org:6969","udp://zer0day.ch:1337"],"urlList":[]}}